<svg width="1000" height="1000" viewBox="0 0 1000 1000" fill="none" xmlns="http://www.w3.org/2000/svg">
<g clip-path="url(#clip0_4888_1904)">
<path d="M294.665 858.169L424.724 74.751H751.403C810.058 74.751 857.874 83.0391 894.851 99.6153C931.829 116.192 957.841 139.398 972.887 169.235C988.188 199.073 992.524 233.628 985.893 272.901C980.538 302.483 969.572 329.005 952.996 352.466C936.674 375.673 916.273 395.055 891.791 410.611C867.309 425.912 840.277 436.623 810.695 442.743L809.165 450.394C840.787 451.669 868.712 460.084 892.939 475.641C917.421 491.197 935.527 513.001 947.258 541.053C958.989 568.85 961.666 601.492 955.291 638.98C948.405 681.058 931.447 718.673 904.415 751.826C877.638 784.723 842.317 810.735 798.454 829.862C754.591 848.733 703.842 858.169 646.208 858.169H294.665ZM510.028 705.54H627.082C667.63 705.54 698.997 697.762 721.184 682.206C743.625 666.395 756.886 644.718 760.966 617.176C764.282 597.029 762.497 579.688 755.611 565.152C748.726 550.361 737.25 539.013 721.184 531.107C705.117 522.946 684.843 518.866 660.362 518.866H539.865L510.028 705.54ZM560.904 396.84H666.099C686.501 396.84 705.245 393.397 722.331 386.511C739.672 379.626 753.953 369.68 765.174 356.674C776.65 343.668 783.791 327.985 786.596 309.623C790.931 283.356 784.938 262.7 768.617 247.654C752.296 232.608 728.452 225.085 697.084 225.085H589.211L560.904 396.84Z" fill="#0061B1"/>
<path d="M563.66 383.838C567.276 393.859 576.787 400.538 587.44 400.538H867.845L643.842 576.501C635.503 583.051 632.139 594.109 635.415 604.193L728.262 889.946L492.756 724.735L492.354 724.459C483.86 718.74 472.731 718.705 464.19 724.412L213.641 891.84L307.043 604.383C310.427 593.966 306.719 582.556 297.858 576.118L56.1934 400.538H355.079C365.732 400.538 375.242 393.859 378.858 383.838L471.26 127.788L563.66 383.838Z" fill="white" stroke="#0061B1" stroke-width="36.5169"/>
</g>
<defs>
<clipPath id="clip0_4888_1904">
<rect width="1000" height="1000" fill="white"/>
</clipPath>
</defs>
</svg>
